<svg width="305" height="305" viewBox="0 0 305 305" fill="none" xmlns="http://www.w3.org/2000/svg">
<path d="M185.724 133.207C186.612 134.596 187.378 136.084 188.033 137.661C201.166 116.957 222.747 87.5901 241.298 84.3912C241.342 84.3912 241.398 84.3801 241.442 84.3801C241.742 84.3801 242.03 84.5467 242.13 84.8022C248.158 100.041 242.43 123.688 232.372 147.236C232.428 148.102 232.461 148.98 232.461 149.846C232.461 152.334 232.239 154.811 231.795 157.21C231.584 158.354 231.329 159.454 231.04 160.531L233.171 165.152C237.168 157.099 240.621 149.268 243.474 141.782C253.254 116.069 255.374 95.8871 249.79 81.7699C249.08 79.9705 247.77 78.4266 246.094 77.427C244.684 76.5828 243.074 76.1385 241.431 76.1385C240.909 76.1385 240.399 76.183 239.888 76.2718C235.88 76.9605 231.695 78.5599 227.443 81.0146C223.824 83.1028 220.05 85.8796 216.209 89.2784C209.858 94.8875 203.098 102.363 196.104 111.515C192.973 115.614 190.009 119.779 187.245 123.833C187.245 123.722 187.256 123.622 187.267 123.511L183.37 130.031C184.214 131.019 185.002 132.085 185.724 133.218V133.207Z" fill="#4ad380"/>
<path d="M169.285 52.4507C168.052 53.3726 166.776 54.2279 165.477 55.0054C167.697 61.0588 169.518 67.6453 170.939 73.5655C172.948 73.2767 174.98 73.1212 176.967 73.1212C177.755 73.1212 178.543 73.1434 179.331 73.1878C178.699 70.4777 177.988 67.612 177.178 64.6797C175.59 58.904 173.903 53.7614 172.127 49.2852C171.405 50.4958 170.45 51.5732 169.285 52.4396V52.4507Z" fill="#4ad380"/>
<path d="M246.357 241.201L246.412 241.257L246.434 241.279L246.479 241.324C246.634 241.224 246.79 241.135 246.945 241.035C246.723 241.068 246.501 241.09 246.279 241.113C246.312 241.146 246.335 241.168 246.368 241.201H246.357Z" fill="#4ad380"/>
<path d="M125.889 67.5009H125.978C126.622 67.4232 127.255 67.3899 127.876 67.3899C128.198 67.3899 128.509 67.3899 128.82 67.4121C129.752 67.4676 130.674 67.6231 131.584 67.8897C132.55 65.3461 133.627 62.6471 134.793 59.948C132.417 59.4149 130.641 58.804 129.675 58.4264C128.731 58.0598 127.865 57.5711 127.088 56.9935C127.022 57.1601 126.944 57.3156 126.877 57.4822C125.345 61.081 123.969 64.6242 122.803 67.8342C123.813 67.7453 124.812 67.6453 125.789 67.512H125.878L125.889 67.5009Z" fill="#4ad380"/>
<path d="M304.309 173.353C303.321 170.987 301.345 169.165 298.903 168.343C292.353 166.155 285.215 165.033 277.699 165.033C263.611 165.033 248.025 168.877 231.373 176.463C231.317 176.485 231.262 176.518 231.206 176.54V185.66C244.528 179.195 261.213 173.286 277.699 173.286C283.994 173.286 290.255 174.152 296.283 176.163C296.66 176.285 296.838 176.663 296.683 176.985C294.607 181.228 280.907 207.707 253.509 227.978C255.485 229.233 256.917 230.655 257.85 232.287C258.272 233.021 258.438 233.831 258.394 234.631C263.944 230.521 269.284 225.945 274.38 220.914C282.151 213.239 289.233 204.653 295.417 195.412C300.268 188.159 303.11 182.649 304.098 180.617C305.22 178.34 305.297 175.685 304.32 173.353H304.309Z" fill="#4ad380"/>
<path d="M8.28825 176.829C8.13283 176.507 8.32156 176.141 8.69901 176.018C14.5828 174.097 20.6663 173.275 26.7832 173.275C33.433 173.275 40.1049 174.252 46.5882 175.841C45.2671 175.208 44.1459 174.419 43.2577 173.464C41.7591 171.875 41.5481 169.465 42.736 167.621C42.9358 167.299 43.1689 166.999 43.4243 166.7C37.6848 165.589 32.1341 165.033 26.7943 165.033C19.5007 165.033 12.5512 166.089 6.15678 168.177C3.70337 168.977 1.71621 170.787 0.705981 173.142C-0.293148 175.474 -0.226539 178.129 0.872502 180.417C1.84943 182.45 4.64699 187.981 9.4428 195.278C15.5597 204.575 22.5647 213.205 30.2802 220.947C40.771 231.466 52.3609 240.074 64.7168 246.516C72.9652 250.814 81.5688 254.158 90.461 256.534L91.7599 248.337C36.8522 233.254 11.1857 182.838 8.29936 176.829H8.28825Z" fill="#4ad380"/>
<path d="M207.581 286.168C207.603 286.534 207.27 286.834 206.859 286.834C206.815 286.834 206.76 286.834 206.715 286.823C201.22 285.879 176.641 287.09 158.857 271.328C161.222 280.714 163.841 291.021 165.806 295.709C165.984 296.12 165.662 296.553 165.251 296.553C165.196 296.553 165.14 296.553 165.085 296.531C162.998 295.953 160.833 295.764 158.935 295.764C156.459 295.764 154.427 296.075 153.539 296.242C153.506 296.242 153.462 296.242 153.428 296.242C153.184 296.242 152.962 296.097 152.873 295.875C149.743 288.222 149.532 277.36 149.809 270.395L148.999 269.873C147.977 271.573 146.112 272.706 143.992 272.706C143.226 272.706 142.493 272.561 141.827 272.284C124.875 282.002 104.871 285.679 100.397 286.412C100.352 286.412 100.308 286.423 100.264 286.423C99.8528 286.423 99.5087 286.123 99.542 285.757C99.8306 282.347 100.774 279.159 102.106 276.227L94.0024 274.183C92.5259 277.76 91.6267 281.414 91.3158 285.068C91.116 287.512 91.9486 289.955 93.6138 291.777C95.3123 293.621 97.7324 294.676 100.252 294.676C100.741 294.676 101.24 294.631 101.718 294.554C104.793 294.054 113.019 292.543 122.922 289.367C129.793 287.156 136.066 284.613 141.694 281.736C142.105 287.6 143.104 293.798 145.235 298.996C146.601 302.34 149.82 304.495 153.428 304.495C153.961 304.495 154.494 304.45 155.027 304.35C155.582 304.25 157.092 304.006 158.935 304.006C160.422 304.006 161.788 304.161 162.876 304.472C163.653 304.683 164.441 304.794 165.24 304.794C168.204 304.794 170.969 303.317 172.612 300.84C174.255 298.363 174.554 295.253 173.4 292.51C173.011 291.577 172.567 290.3 172.09 288.789C174.843 289.866 177.718 290.799 180.716 291.577C189.375 293.832 197.268 294.365 201.986 294.687C203.318 294.776 204.817 294.876 205.316 294.965C205.816 295.053 206.338 295.098 206.848 295.098C209.357 295.098 211.766 294.054 213.465 292.221C215.13 290.422 215.985 287.989 215.796 285.557C215.541 282.247 214.808 278.926 213.587 275.671L204.928 276.327C206.315 279.348 207.292 282.647 207.559 286.179L207.581 286.168Z" fill="#4ad380"/>
<path d="M60.8187 133.028C62.9169 133.028 65.1261 133.739 67.3686 135.128C67.5906 135.261 67.8237 135.416 68.0457 135.561C61.285 116.19 58.3542 97.7742 63.4387 85.2008C63.5386 84.9454 63.8161 84.7899 64.1269 84.7899C64.1825 84.7899 64.2269 84.7899 64.2824 84.801C78.1036 87.289 93.5013 104.361 105.824 121.51C108.522 121.288 112.463 121.088 113.939 121.022L113.739 120.1C112.474 118.589 111.619 116.823 111.197 114.868C110.564 113.991 109.909 113.124 109.265 112.258C102.349 103.05 95.6439 95.5194 89.3272 89.8659C85.5083 86.4448 81.7449 83.6347 78.148 81.5244C73.9073 79.0363 69.7332 77.4036 65.7367 76.6816C65.2038 76.5817 64.6598 76.5372 64.1269 76.5372C62.495 76.5372 60.8853 76.9815 59.4865 77.8146C57.8213 78.8031 56.5114 80.3359 55.7898 82.113C50.7497 94.5642 51.7267 111.847 58.665 133.539C59.3089 133.217 60.0416 133.028 60.7965 133.028H60.8187Z" fill="#4ad380"/>
<path d="M209.411 266.67C209.322 266.493 209.222 266.326 209.123 266.148V266.681H209.411V266.67Z" fill="#4ad380"/>
<path d="M133.371 49.4703C133.371 49.7368 133.526 49.9812 133.77 50.0812C135.025 50.5699 139.043 51.9361 144.439 51.9361C147.381 51.9361 150.733 51.5251 154.275 50.3477C157.283 49.3481 160.425 47.782 163.566 45.4383C163.755 45.294 163.844 45.0718 163.811 44.8386C163.522 42.9837 162.345 34.42 163.444 24.0792C161.69 23.6905 160.025 22.9685 158.538 21.9688C155.818 24.9345 154.685 28.2888 154.23 30.166C154.175 30.3992 154.008 30.5547 153.819 30.6102C153.753 30.6325 153.686 30.6436 153.62 30.6436C153.42 30.6436 153.22 30.5547 153.098 30.3548L147.469 21.7578C146.148 22.2132 144.761 22.4798 143.362 22.5353L141.752 31.1656C141.708 31.41 141.541 31.5766 141.33 31.6432C141.264 31.6654 141.197 31.6765 141.13 31.6765C140.975 31.6765 140.82 31.621 140.698 31.4988C138.899 29.7328 134.481 25.5454 130.273 22.6686C129.274 23.846 128.086 24.8678 126.732 25.6787C129.785 31.3433 133.626 40.3513 133.382 49.448L133.371 49.4703Z" fill="#4ad380"/>
<path d="M118.11 20.3303C118.2 20.3303 118.304 20.3303 118.394 20.3303C119.362 20.3303 120.331 20.0776 121.225 19.5574C122.507 18.7994 123.372 17.6104 123.759 16.2877C124.161 14.8609 124.012 13.2855 123.208 11.9181C122.164 10.1495 120.301 9.16858 118.394 9.16858C117.425 9.16858 116.456 9.42124 115.562 9.94143C112.909 11.502 112.015 14.9203 113.594 17.5807C114.578 19.2602 116.322 20.2262 118.125 20.3154L118.11 20.3303Z" fill="#4ad380"/>
<path d="M141.522 11.1617C142.489 11.1617 143.457 10.909 144.35 10.3888C146.999 8.82828 147.892 5.40992 146.314 2.74955C145.272 0.98092 143.412 0 141.507 0C140.539 0 139.572 0.252661 138.679 0.772846C136.029 2.3334 135.136 5.75176 136.714 8.41213C137.756 10.1808 139.616 11.1617 141.522 11.1617Z" fill="#4ad380"/>
<path d="M161.414 12.3985C161.637 12.7849 161.905 13.1267 162.203 13.4388C163.275 14.5386 164.733 15.148 166.222 15.148C166.49 15.148 166.758 15.1331 167.026 15.0886C167.725 14.9845 168.41 14.7467 169.065 14.3752C171.714 12.8146 172.607 9.39625 171.029 6.73588C169.988 4.96725 168.127 3.98633 166.222 3.98633C165.254 3.98633 164.287 4.23899 163.394 4.75917C160.744 6.31973 159.851 9.73809 161.429 12.3985H161.414Z" fill="#4ad380"/>
<path d="M113.006 85.9895C113.495 86.1894 113.983 86.3116 114.472 86.3782C115.16 86.5115 115.848 86.6115 116.548 86.7004C117.247 86.7781 117.991 86.867 118.768 86.9669C118.768 88.633 118.768 90.2213 118.746 91.743C118.724 93.2647 118.746 94.7975 118.768 96.3636L119.112 113.835C119.179 115.568 119.812 116.967 121.022 118.045C121.799 118.733 122.631 119.078 123.52 119.078C123.675 119.078 123.841 119.067 124.008 119.045C125.085 118.9 125.984 118.334 126.695 117.356C127.216 116.634 127.56 115.901 127.727 115.135C127.893 114.368 127.96 113.558 127.927 112.713L127.538 104.638C127.338 101.64 127.15 98.6406 126.95 95.6639C126.75 92.676 126.328 89.666 125.673 86.6337C125.929 86.6004 126.206 86.556 126.484 86.5115C126.761 86.4671 127.028 86.4338 127.294 86.4338C127.372 86.4338 127.449 86.4338 127.527 86.4338C129.403 86.4338 131.235 86.0561 133.011 85.3009C133.2 85.212 133.378 85.112 133.533 85.001C133.644 84.179 133.811 83.4015 134.033 82.6684L134.066 82.5463L134.11 82.4352C134.232 82.102 134.366 81.7799 134.51 81.4578C134.377 81.1912 134.21 80.9357 133.977 80.6914C133.711 80.4359 133.422 80.2026 133.1 80.0027C132.778 79.8028 132.445 79.6473 132.123 79.514C131.568 79.3141 131.002 79.203 130.436 79.1697C130.247 79.1697 130.058 79.1586 129.858 79.1586C129.47 79.1586 129.059 79.1808 128.648 79.2252C127.405 79.3918 126.162 79.514 124.907 79.614C123.653 79.7139 122.409 79.825 121.166 79.9583C120.089 80.0583 119.001 80.1471 117.913 80.2249C116.825 80.3026 115.737 80.4137 114.661 80.547C114.394 80.5803 114.128 80.6358 113.85 80.7136C113.573 80.7913 113.306 80.8802 113.04 80.9802C111.896 81.4356 111.33 82.2575 111.33 83.4237C111.297 84.0457 111.441 84.5567 111.741 84.9676C112.052 85.3786 112.462 85.7118 112.984 85.9673L113.006 85.9895Z" fill="#4ad380"/>
<path d="M140.049 86.045C139.983 87.0891 139.916 88.1443 139.85 89.2217C139.783 90.2991 139.716 91.3543 139.65 92.3983L139.061 102.817C138.995 104.383 138.928 105.927 138.862 107.437C138.795 108.959 138.728 110.492 138.662 112.058C138.628 112.713 138.728 113.335 138.95 113.946C139.184 114.546 139.483 115.124 139.883 115.679C140.271 116.234 140.76 116.645 141.326 116.923C141.892 117.201 142.481 117.334 143.091 117.334C143.702 117.334 144.268 117.19 144.823 116.89C145.378 116.601 145.856 116.157 146.244 115.568C147.054 114.357 147.465 113.091 147.465 111.747C147.499 111.058 147.51 110.37 147.487 109.67C147.465 108.97 147.487 108.271 147.51 107.593C147.51 107.426 147.521 107.271 147.554 107.104C147.587 106.938 147.621 106.76 147.654 106.571C148.931 106.504 150.174 106.46 151.395 106.427C152.616 106.393 153.893 106.349 155.236 106.282C155.236 107.193 155.247 108.048 155.281 108.848C155.314 109.648 155.292 110.436 155.236 111.225C155.17 112.502 155.392 113.558 155.891 114.402C156.402 115.246 157.046 115.89 157.845 116.334C158.644 116.779 159.51 116.99 160.432 116.99C161.353 116.99 162.197 116.768 162.952 116.334C163.707 115.89 164.284 115.213 164.684 114.302C164.961 113.691 165.083 112.969 165.072 112.147C164.894 111.081 164.783 110.037 164.761 109.015C164.728 108.593 164.695 108.182 164.661 107.76C164.595 106.727 164.528 105.694 164.462 104.65C164.295 101.973 164.173 99.2959 164.095 96.6191C164.017 93.9422 163.895 91.2321 163.729 88.4997C163.696 87.8777 163.64 87.2668 163.562 86.667C163.485 86.0672 163.34 85.4674 163.152 84.8788C162.885 83.968 162.341 83.3238 161.509 82.9461C161.064 82.7462 160.62 82.6462 160.165 82.6462C159.777 82.6462 159.377 82.724 158.988 82.8684C158.3 83.1571 157.801 83.557 157.468 84.0679C157.146 84.5789 156.946 85.1564 156.879 85.8007C156.646 87.6 156.435 89.3772 156.246 91.1321C156.047 92.8982 155.858 94.6531 155.658 96.4191C155.591 97.1966 155.536 97.9852 155.492 98.7627C155.447 99.5403 155.381 100.318 155.325 101.062C154.015 101.195 152.738 101.329 151.484 101.451C150.229 101.584 148.931 101.695 147.598 101.795V100.229C147.465 97.9741 147.354 95.7305 147.254 93.4979C147.154 91.2654 147.043 89.0217 146.91 86.767C146.877 86.3449 146.799 85.9228 146.688 85.4897C146.577 85.0676 146.433 84.6788 146.277 84.3123C146.011 83.6903 145.611 83.2238 145.056 82.8906C144.546 82.5907 143.99 82.4463 143.38 82.4463C143.324 82.4463 143.258 82.4463 143.202 82.4463C142.547 82.5129 141.959 82.7129 141.437 83.0572C140.915 83.4015 140.538 83.9013 140.316 84.5455C140.183 84.9676 140.083 85.4452 140.027 85.9673L140.049 86.045Z" fill="#4ad380"/>
<path d="M170.279 88.4887C170.012 91.8542 169.835 95.1863 169.746 98.4963C169.646 101.806 169.646 105.149 169.746 108.504C169.746 109.648 169.879 110.836 170.134 112.08C170.589 114.135 171.555 115.646 173.021 116.612C174.086 117.312 175.319 117.667 176.695 117.667C177.206 117.667 177.75 117.623 178.305 117.523C178.793 117.423 179.448 117.267 180.259 117.056C181.069 116.845 181.724 116.701 182.213 116.645C182.99 116.512 183.756 116.323 184.488 116.079C185.221 115.835 185.909 115.479 186.564 115.024C187.119 114.668 187.497 114.246 187.719 113.746C187.93 113.258 187.952 112.736 187.797 112.18C187.63 111.625 187.319 111.181 186.842 110.859C186.409 110.559 185.898 110.414 185.288 110.414C185.232 110.414 185.166 110.414 185.11 110.414C184.655 110.448 184.222 110.492 183.811 110.559C183.4 110.625 182.968 110.692 182.512 110.759C182.246 110.792 181.946 110.847 181.58 110.925C181.225 111.003 180.847 111.092 180.459 111.192C180.07 111.292 179.693 111.392 179.337 111.481C178.982 111.581 178.682 111.647 178.46 111.681V103.017C179.115 102.95 179.737 102.884 180.348 102.817C180.947 102.75 181.547 102.684 182.135 102.617C182.557 102.55 182.979 102.484 183.378 102.417C183.789 102.35 184.189 102.25 184.577 102.128C185.166 101.895 185.599 101.562 185.876 101.129C186.154 100.684 186.242 100.207 186.143 99.6847C185.976 98.6407 185.232 98.0853 183.889 98.0187C183.334 98.0187 182.79 98.0409 182.246 98.0631C181.713 98.0964 181.158 98.1408 180.603 98.2075C180.248 98.2408 179.881 98.2741 179.504 98.3074C179.126 98.3408 178.749 98.3852 178.349 98.4518C178.216 96.8857 178.227 95.3418 178.372 93.7979C178.516 92.2651 178.527 90.699 178.394 89.0996C179.049 89.1329 179.67 89.1773 180.248 89.244C180.836 89.3106 181.424 89.3662 182.013 89.4106C182.601 89.455 183.212 89.4994 183.845 89.5328C184.477 89.5661 185.177 89.5772 185.92 89.5772C186.509 89.5772 186.975 89.3328 187.319 88.8441C187.663 88.3554 187.863 87.8 187.93 87.178C188.03 85.9007 187.508 85.0121 186.365 84.4901C185.909 84.2568 185.443 84.0569 184.966 83.8792C184.488 83.7015 184.011 83.5793 183.523 83.5127C182.013 83.3127 180.481 83.2128 178.949 83.2128C177.173 83.2128 175.396 83.3461 173.598 83.6015C173.043 83.7015 172.565 83.9014 172.177 84.2124C171.788 84.5234 171.455 84.9011 171.2 85.3342C170.934 85.7785 170.723 86.2672 170.567 86.8004C170.401 87.3335 170.301 87.8889 170.279 88.4443V88.4887Z" fill="#4ad380"/>
<path d="M86.4407 128.263C87.129 128.263 87.8173 128.119 88.4834 127.808C89.1494 127.508 89.7378 127.119 90.2485 126.631C90.7592 126.142 91.1588 125.587 91.4585 124.965C91.7583 124.343 91.9137 123.71 91.9137 123.054C91.8693 121.81 91.3808 120.755 90.4594 119.9C89.538 119.045 88.4056 118.611 87.0624 118.611C85.5859 118.611 84.398 119.089 83.521 120.033C82.644 120.977 82.2 122.243 82.2 123.809C82.2 125.153 82.5885 126.231 83.3767 127.031C84.1649 127.841 85.1751 128.241 86.4296 128.241L86.4407 128.263Z" fill="#4ad380"/>
<path d="M129.87 191.041C130.558 191.041 131.246 190.897 131.912 190.586C132.578 190.286 133.167 189.897 133.677 189.409C134.188 188.92 134.588 188.364 134.887 187.742C135.187 187.12 135.343 186.487 135.343 185.832C135.298 184.588 134.81 183.533 133.888 182.678C132.967 181.822 131.834 181.389 130.491 181.389C129.015 181.389 127.827 181.867 126.95 182.811C126.073 183.755 125.629 185.021 125.629 186.587C125.629 187.931 126.017 189.009 126.806 189.808C127.594 190.619 128.604 191.019 129.858 191.019L129.87 191.041Z" fill="#4ad380"/>
<path d="M70.388 171.959C68.1122 173.448 60.3857 179.012 59.5974 186.021C59.5974 186.099 59.6308 186.154 59.6974 186.154C61.0073 186.065 72.9192 184.921 79.4024 174.147C79.5578 174.869 79.7465 175.569 79.9797 176.247C80.346 177.335 80.8789 178.29 81.5783 179.123C82.2222 180.001 83.0104 180.623 83.9318 181C84.0983 181.067 84.2648 181.123 84.4313 181.178C84.7533 181.145 85.0752 181.123 85.3972 181.123C86.0188 181.123 86.6294 181.2 87.2289 181.334C87.9505 181.178 88.6277 180.878 89.2605 180.412C90.0487 179.834 90.6259 179.035 90.9923 178.013C91.5474 176.535 91.947 175.069 92.2023 173.603C92.4577 172.148 92.6131 170.671 92.6908 169.16C92.7574 167.661 92.7574 166.106 92.6908 164.506C92.6242 162.907 92.5576 161.23 92.5132 159.475H92.4466C92.4022 158.686 92.3689 157.886 92.3467 157.076C92.3245 156.265 92.269 155.465 92.169 154.676C91.9359 152.266 91.7139 149.878 91.514 147.49C91.3031 145.113 91.0589 142.714 90.7814 140.304C90.6925 139.56 90.5149 138.838 90.2596 138.116C90.0043 137.394 89.7156 136.716 89.3937 136.072C88.5944 134.595 87.4065 133.862 85.8301 133.862C85.5748 133.862 85.3084 133.884 85.0308 133.917C83.41 134.15 82.2888 134.983 81.6671 136.405C81.5561 136.25 81.4562 136.139 81.4006 136.061C81.3784 136.039 81.3562 136.027 81.334 136.027C81.3007 136.027 81.2674 136.039 81.2452 136.072C76.6603 141.426 77.8815 150.878 78.3478 153.555C78.37 153.655 78.2812 153.743 78.2145 153.743C78.1812 153.743 78.159 153.732 78.1368 153.699C74.429 147.546 67.6571 139.204 62.4172 139.182C62.3617 139.182 62.3062 139.237 62.284 139.304C61.0739 144.114 67.5017 153.388 69.1225 155.621C69.1891 155.709 69.1003 155.854 69.0115 155.854C69.0004 155.854 68.9782 155.854 68.9671 155.854C67.0243 154.91 64.0713 152.955 61.0628 151.744C60.4523 151.5 59.8417 151.278 59.2422 151.089C59.2422 151.089 55.2013 150.078 51.882 150.078C50.3722 150.078 49.0289 150.289 48.2629 150.889C47.7411 153.61 54.1466 159.042 54.1466 159.042C54.1689 159.053 54.2022 159.075 54.2244 159.086C55.0126 159.564 55.8674 160.052 56.7888 160.486C59.8861 161.963 63.6717 162.762 65.6477 163.518C65.7587 163.562 65.7143 163.762 65.5922 163.784C62.8613 164.129 51.6932 165.773 49.0067 169.938C48.9734 169.993 48.9734 170.071 49.0067 170.115C50.9494 172.17 54.9571 172.903 59.3421 172.903C63.0833 172.903 67.102 172.37 70.3325 171.693C70.3325 171.693 70.3436 171.693 70.3547 171.693C70.4657 171.693 70.488 171.87 70.3769 171.948L70.388 171.959Z" fill="#4ad380"/>
<path d="M98.9187 144.391C98.9631 146.546 99.0297 148.701 99.1296 150.878C99.3183 153.466 99.5404 156.02 99.8179 158.542C100.095 161.063 100.373 163.618 100.65 166.206C100.839 168.105 101.106 170.093 101.472 172.17C101.661 173.192 101.983 174.036 102.471 174.703C102.948 175.369 103.703 175.825 104.714 176.058C105.091 176.158 105.469 176.202 105.813 176.202C106.645 176.202 107.389 175.936 108.055 175.402C108.999 174.636 109.532 173.492 109.676 171.97C109.809 170.671 109.898 169.405 109.92 168.149C109.942 166.905 109.953 165.628 109.953 164.329C109.909 162.385 109.865 160.485 109.82 158.642C109.776 156.787 109.731 154.899 109.687 152.955C109.687 152.722 109.709 152.477 109.754 152.222C109.798 151.966 109.842 151.633 109.887 151.211C111.086 152.877 112.196 154.476 113.217 155.998C114.239 157.52 115.271 159.03 116.337 160.508C117.025 161.43 117.736 162.463 118.457 163.595C119.179 164.728 119.889 165.872 120.611 167.028C121.332 168.183 122.054 169.316 122.798 170.426C123.542 171.537 124.297 172.503 125.085 173.337C125.962 174.358 126.894 175.069 127.893 175.491C128.704 175.836 129.492 176.002 130.269 176.002C130.436 176.002 130.613 176.002 130.78 175.98C131.701 175.891 132.567 175.558 133.377 174.969C134.188 174.392 134.865 173.614 135.42 172.648C135.931 171.626 136.441 170.06 136.941 167.927C137.452 165.795 137.885 163.407 138.262 160.741C138.628 158.086 138.939 155.287 139.195 152.344C139.45 149.412 139.583 146.601 139.605 143.914C139.628 141.237 139.528 138.804 139.295 136.627C139.061 134.45 138.673 132.806 138.118 131.696C137.474 130.496 136.697 129.563 135.798 128.919C134.898 128.275 133.799 127.919 132.5 127.875C132.456 127.875 132.412 127.875 132.367 127.875C129.892 127.875 128.016 129.074 126.75 131.485C126.239 132.362 125.906 133.273 125.74 134.228C125.573 135.172 125.495 136.161 125.495 137.183C125.451 139.771 125.418 142.314 125.396 144.813C125.373 147.312 125.34 149.856 125.296 152.444C125.296 152.677 125.285 152.855 125.262 152.999C125.24 153.133 125.207 153.299 125.162 153.488C125.074 153.532 124.952 153.555 124.818 153.555C124.452 152.999 124.086 152.444 123.708 151.889C123.342 151.333 122.975 150.778 122.598 150.222C121.443 148.423 120.278 146.624 119.101 144.847C117.924 143.069 116.736 141.27 115.538 139.471C114.749 138.404 113.983 137.327 113.217 136.25C112.451 135.161 111.641 134.106 110.764 133.095C109.698 131.896 108.533 131.051 107.234 130.563C106.701 130.363 106.146 130.263 105.568 130.263C104.747 130.263 103.87 130.463 102.948 130.874C101.472 131.518 100.44 132.462 99.8401 133.684C99.2406 134.906 98.9187 136.327 98.8743 137.949C98.8743 140.082 98.8965 142.214 98.9409 144.369L98.9187 144.391Z" fill="#4ad380"/>
<path d="M172.288 131.174C169.424 129.419 166.171 128.341 162.541 127.952C161.597 127.853 160.631 127.797 159.643 127.797C156.879 127.797 153.993 128.208 150.984 129.03C147.887 129.996 146.333 132.018 146.333 135.061C146.244 139.637 146.2 144.202 146.233 148.734C146.255 153.266 146.177 157.964 145.989 162.818C145.944 163.884 145.911 164.928 145.889 165.939C145.867 166.961 145.878 167.972 145.922 168.994C146.011 170.615 146.51 172.026 147.41 173.225C148.309 174.425 149.452 175.169 150.84 175.447C151.806 175.636 152.794 175.758 153.782 175.824C154.781 175.891 155.802 175.924 156.868 175.924C157.934 175.924 159 175.869 160.054 175.747C161.12 175.636 162.186 175.525 163.24 175.436C164.439 175.347 165.638 175.214 166.815 175.058C167.992 174.891 169.113 174.558 170.179 174.047C172.91 172.803 175.197 171.259 177.039 169.438C178.893 167.616 180.337 165.606 181.369 163.44C182.412 161.263 183.067 158.942 183.345 156.465C183.623 153.988 183.578 151.478 183.212 148.934C182.612 144.869 181.347 141.326 179.437 138.316C177.517 135.305 175.13 132.929 172.255 131.174H172.288ZM171.289 153.655C170.989 155.643 170.39 157.509 169.49 159.241C168.591 160.974 167.37 162.351 165.849 163.373C163.951 164.573 161.731 165.295 159.188 165.528C159.188 163.073 159.188 160.763 159.222 158.586C159.244 156.409 159.277 154.265 159.322 152.133C159.366 150 159.399 147.868 159.421 145.713C159.444 143.558 159.455 141.259 159.455 138.804C160.376 138.593 161.253 138.493 162.064 138.493C163.251 138.493 164.339 138.715 165.316 139.149C166.959 139.893 168.258 141.003 169.235 142.481C170.201 143.958 170.867 145.702 171.211 147.69C171.555 149.678 171.578 151.666 171.278 153.655H171.289Z" fill="#4ad380"/>
<path d="M192.337 170.415C193.492 172.426 195.168 174.014 197.366 175.169C199.331 176.202 201.851 176.713 204.937 176.713C205.304 176.713 205.681 176.713 206.07 176.691C210.133 176.558 213.619 175.602 216.505 173.847C219.391 172.093 221.645 169.105 223.266 164.895C223.954 163.096 224.498 161.13 224.898 158.997C225.286 156.865 225.486 154.699 225.486 152.477C225.486 150.256 225.264 148.045 224.831 145.846C224.387 143.647 223.688 141.581 222.711 139.637C220.957 136.172 218.792 133.706 216.227 132.251C214.129 131.063 211.509 130.463 208.368 130.463C207.668 130.463 206.947 130.496 206.203 130.552C202.551 130.874 199.697 131.718 197.633 133.084C195.579 134.45 194.014 136.205 192.948 138.36C191.882 140.515 191.183 143.003 190.827 145.824C190.483 148.645 190.195 151.677 189.962 154.91C189.773 157.82 189.828 160.63 190.139 163.34C190.439 166.05 191.172 168.405 192.326 170.415H192.337ZM199.853 154.832C199.875 153.399 199.986 151.922 200.197 150.389C200.408 148.856 200.73 147.401 201.163 146.013C201.607 144.624 202.218 143.536 203.006 142.747C203.65 142.103 204.504 141.67 205.57 141.459C206.103 141.359 206.636 141.303 207.169 141.303C207.702 141.303 208.234 141.359 208.767 141.459C209.833 141.67 210.81 142.092 211.709 142.747C212.608 143.392 213.241 144.225 213.619 145.246C214.407 147.423 214.807 149.645 214.829 151.911C214.851 154.177 214.729 156.509 214.451 158.919C214.263 160.397 213.785 161.663 212.997 162.696C212.209 163.74 211.287 164.551 210.222 165.128C209.156 165.706 208.024 166.017 206.825 166.061C206.725 166.061 206.636 166.061 206.536 166.061C205.448 166.061 204.427 165.817 203.494 165.328C202.473 164.795 201.618 163.951 200.93 162.796C200.241 161.641 199.864 160.141 199.82 158.286C199.82 157.409 199.82 156.254 199.853 154.821V154.832Z" fill="#4ad380"/>
<path d="M114.25 225.296C113.417 224.207 112.474 223.208 111.408 222.275C110.531 221.486 109.665 220.731 108.81 219.987C107.955 219.243 107.067 218.487 106.135 217.699C105.213 216.91 104.281 216.099 103.359 215.266C102.438 214.433 101.461 213.556 100.451 212.634C100.773 212.312 101.339 211.767 102.149 211.001C102.96 210.235 103.814 209.424 104.714 208.569C105.613 207.713 106.468 206.902 107.278 206.136C108.088 205.37 108.632 204.825 108.91 204.503C110.02 203.348 111.108 202.193 112.174 201.038C113.24 199.883 114.305 198.705 115.36 197.495C115.771 196.984 116.148 196.417 116.47 195.795C116.792 195.173 117.07 194.54 117.303 193.885C118.046 192.085 117.747 190.486 116.403 189.098C115.715 188.453 114.949 188.009 114.117 187.776C113.795 187.687 113.473 187.643 113.14 187.643C112.607 187.643 112.052 187.754 111.486 187.987C110.564 188.265 109.709 188.731 108.921 189.375C107.811 190.253 106.723 191.119 105.657 191.974C104.592 192.83 103.526 193.718 102.471 194.651C102.06 195.018 101.383 195.595 100.462 196.384C99.5404 197.173 98.5524 198.017 97.5088 198.916C96.4653 199.816 95.4662 200.682 94.4892 201.515C93.5123 202.348 92.7796 202.97 92.269 203.393C92.0358 201.915 91.836 200.516 91.6806 199.194C91.5141 197.872 91.3253 196.595 91.0922 195.34C90.8591 194.096 90.6037 192.863 90.3262 191.663C90.0487 190.464 89.7045 189.264 89.2827 188.054C88.9163 186.987 88.2946 186.232 87.4398 185.765C86.7849 185.41 86.1077 185.232 85.4083 185.232C85.1973 185.232 84.9864 185.243 84.7755 185.277C83.8097 185.466 83.0104 185.888 82.3776 186.565C81.7559 187.232 81.3673 188.153 81.2341 189.309C81.1453 190.097 81.0676 190.886 81.0232 191.663C80.9788 192.452 80.9344 193.241 80.89 194.018C80.8012 197.672 80.7235 201.304 80.6791 204.914C80.6347 208.524 80.5903 212.156 80.5458 215.81C80.5458 217.332 80.5236 218.876 80.4792 220.42C80.4348 221.975 80.4681 223.519 80.5792 225.074C80.6902 226.629 80.9011 228.173 81.2008 229.728C81.5006 231.283 81.9779 232.816 82.6218 234.337C83.5432 236.436 85.1196 237.492 87.3399 237.492C87.5619 237.492 87.7951 237.492 88.0282 237.458C90.4372 237.269 92.0025 235.981 92.7463 233.571C93.257 232.094 93.5678 230.527 93.6788 228.884C93.7899 227.24 93.9675 225.54 94.2006 223.785L95.444 225.029C97.3423 227.018 99.2296 229.05 101.128 231.138C102.793 232.893 104.758 234.426 107.023 235.714C108.41 236.459 109.798 236.825 111.186 236.825C112.296 236.825 113.273 236.592 114.139 236.137C114.994 235.67 115.66 235.059 116.148 234.293C116.637 233.526 116.914 232.671 116.981 231.727C117.047 230.783 116.848 229.817 116.392 228.85C115.793 227.551 115.071 226.362 114.239 225.274L114.25 225.296Z" fill="#4ad380"/>
<path d="M136.519 229.939C136.752 228.761 136.863 227.662 136.863 226.64C136.863 222.941 136.797 219.265 136.652 215.61C136.519 211.956 136.308 208.191 136.031 204.303C135.986 203.515 135.898 202.737 135.753 201.982C135.609 201.227 135.409 200.471 135.132 199.727C134.621 198.339 133.733 197.372 132.456 196.817C131.868 196.562 131.279 196.428 130.691 196.428C130.003 196.428 129.303 196.606 128.615 196.95C126.95 197.783 126.051 199.127 125.906 200.971C125.718 202.871 125.573 204.748 125.451 206.625C125.34 208.502 125.229 210.379 125.14 212.278C124.952 214.633 124.785 216.988 124.618 219.32C124.452 221.653 124.308 224.007 124.163 226.362C124.074 227.329 124.119 228.406 124.297 229.583C124.485 230.761 124.818 231.871 125.307 232.915C125.795 233.96 126.45 234.837 127.283 235.548C128.115 236.259 129.137 236.647 130.336 236.692C130.413 236.692 130.491 236.692 130.558 236.692C131.657 236.692 132.6 236.381 133.377 235.748C134.21 235.081 134.876 234.237 135.387 233.215C135.898 232.193 136.264 231.094 136.497 229.917L136.519 229.939Z" fill="#4ad380"/>
<path d="M180.758 228.173C181.269 226.04 181.702 223.652 182.08 220.986C182.446 218.332 182.757 215.533 183.012 212.589C183.267 209.657 183.401 206.847 183.423 204.159C183.445 201.482 183.345 199.05 183.112 196.873C182.879 194.696 182.49 193.052 181.935 191.941C181.291 190.741 180.514 189.808 179.615 189.164C178.716 188.52 177.617 188.165 176.318 188.12C176.273 188.12 176.229 188.12 176.185 188.12C173.709 188.12 171.833 189.32 170.567 191.73C170.057 192.607 169.724 193.518 169.557 194.473C169.391 195.418 169.313 196.406 169.313 197.417C169.268 200.005 169.235 202.548 169.213 205.047C169.191 207.547 169.157 210.09 169.113 212.678C169.113 212.911 169.102 213.089 169.08 213.233C169.058 213.367 169.024 213.533 168.98 213.722C168.891 213.767 168.769 213.789 168.636 213.789C168.269 213.233 167.903 212.678 167.526 212.123C167.159 211.567 166.793 211.012 166.415 210.457C165.261 208.657 164.095 206.858 162.918 205.081C161.742 203.304 160.554 201.504 159.355 199.705C158.567 198.639 157.801 197.561 157.035 196.484C156.269 195.395 155.458 194.34 154.581 193.329C153.516 192.13 152.35 191.286 151.051 190.797C150.518 190.597 149.963 190.497 149.386 190.497C148.564 190.497 147.687 190.697 146.766 191.108C145.289 191.752 144.257 192.696 143.657 193.918C143.058 195.14 142.736 196.562 142.692 198.183C142.692 200.316 142.714 202.448 142.758 204.603C142.803 206.758 142.869 208.913 142.969 211.09C143.158 213.678 143.38 216.232 143.657 218.754C143.935 221.275 144.213 223.83 144.49 226.418C144.679 228.317 144.945 230.305 145.312 232.382C145.5 233.404 145.822 234.248 146.311 234.915C146.788 235.581 147.543 236.037 148.553 236.27C148.931 236.37 149.308 236.414 149.652 236.414C150.485 236.414 151.229 236.148 151.895 235.614C152.838 234.848 153.371 233.704 153.516 232.182C153.649 230.883 153.738 229.617 153.76 228.361C153.782 227.117 153.793 225.84 153.793 224.541C153.749 222.597 153.704 220.698 153.66 218.854C153.615 216.999 153.571 215.111 153.527 213.167C153.527 212.934 153.549 212.689 153.593 212.434C153.638 212.178 153.682 211.845 153.726 211.423C154.925 213.089 156.036 214.689 157.057 216.21C158.078 217.732 159.111 219.242 160.176 220.72C160.865 221.642 161.575 222.675 162.297 223.808C163.018 224.94 163.729 226.084 164.45 227.24C165.172 228.395 165.894 229.528 166.637 230.638C167.381 231.749 168.136 232.715 168.924 233.549C169.801 234.57 170.734 235.281 171.733 235.703C172.543 236.048 173.332 236.214 174.109 236.214C174.275 236.214 174.453 236.214 174.619 236.192C175.541 236.103 176.407 235.77 177.217 235.181C178.027 234.604 178.705 233.826 179.26 232.86C179.77 231.838 180.281 230.272 180.781 228.139L180.758 228.173Z" fill="#4ad380"/>
<path d="M233.157 236.536C233.057 236.47 233.135 236.303 233.257 236.303C233.257 236.303 233.268 236.303 233.279 236.303C234.778 236.559 238.808 237.17 242.749 237.17C246.079 237.17 249.354 236.736 250.997 235.27C251.053 235.226 251.064 235.148 251.03 235.104C248.366 230.439 237.653 228.039 230.393 227.406C230.26 227.395 230.271 227.195 230.404 227.151C232.98 226.396 241.85 223.352 244.214 216.921C244.236 216.854 244.214 216.777 244.148 216.766C243.648 216.655 241.561 216.232 238.686 216.232C235.056 216.232 230.16 216.91 225.575 219.72C225.619 219.331 225.653 218.932 225.686 218.509C225.775 217.31 225.83 216.066 225.864 214.8C225.886 213.533 225.819 212.312 225.653 211.156C225.486 210.001 225.242 208.957 224.887 208.035C224.542 207.113 224.065 206.391 223.466 205.881C221.756 204.403 219.791 203.515 217.571 203.204C216.572 203.07 215.573 203.004 214.562 203.004C213.319 203.004 212.053 203.104 210.777 203.315C209.3 203.548 208.079 204.17 207.135 205.192C206.192 206.214 205.67 207.369 205.57 208.657C205.437 210.279 205.936 211.701 207.091 212.923C208.246 214.144 209.7 214.833 211.465 214.966C211.898 215 212.342 215.011 212.797 215.011C213.03 215.011 213.263 215.011 213.508 215C214.229 214.977 215.017 214.966 215.906 214.966C216.094 216.632 215.928 218.187 215.417 219.62C214.906 221.053 214.196 222.253 213.263 223.23C212.342 224.196 211.298 224.918 210.144 225.385C209.378 225.696 208.612 225.851 207.846 225.851C207.468 225.851 207.091 225.818 206.714 225.74C205.581 225.507 204.549 224.896 203.627 223.896C202.706 222.897 202.029 221.408 201.618 219.42C201.252 217.665 201.096 215.755 201.163 213.7C201.229 211.645 201.496 209.713 201.962 207.902C202.795 204.437 204.404 201.704 206.78 199.716C209.156 197.728 212.708 196.684 217.426 196.595C218.348 196.595 219.103 196.228 219.68 195.484C220.257 194.74 220.635 193.885 220.823 192.918C220.957 191.852 220.823 190.93 220.413 190.142C220.002 189.353 219.391 188.642 218.614 187.987C217.46 187.154 216.116 186.621 214.596 186.387C213.796 186.265 212.975 186.21 212.153 186.21C211.409 186.21 210.666 186.254 209.911 186.354C208.312 186.565 206.758 186.943 205.226 187.498C203.705 188.054 202.362 188.72 201.207 189.509C198.987 191.03 197.055 192.963 195.412 195.307C193.769 197.639 192.459 200.183 191.494 202.937C190.528 205.692 189.906 208.546 189.651 211.512C189.395 214.478 189.54 217.332 190.061 220.087C190.594 222.841 191.538 225.374 192.903 227.684C194.269 229.994 196.078 231.871 198.343 233.304C200.563 234.737 203.039 235.615 205.759 235.937C206.569 236.037 207.369 236.081 208.168 236.081C209.311 236.081 210.444 235.981 211.565 235.781C205.948 246.111 210.799 256.863 211.376 258.051C211.398 258.084 211.432 258.107 211.465 258.107C211.487 258.107 211.509 258.107 211.532 258.084C217.26 254.319 218.204 244.989 218.359 242.301C218.359 242.212 218.437 242.157 218.503 242.157C218.548 242.157 218.581 242.179 218.603 242.223C220.857 249.154 225.619 259.051 230.77 260.583C230.77 260.583 230.793 260.583 230.804 260.583C230.848 260.583 230.904 260.55 230.926 260.506C233.213 256.285 228.994 245.6 227.906 243.001C227.862 242.912 227.951 242.812 228.039 242.812C228.062 242.812 228.084 242.812 228.106 242.834C229.805 244.289 232.269 247.01 234.956 249.043C235.5 249.454 236.055 249.843 236.599 250.198C236.599 250.198 242.86 253.764 246.246 253.764C246.668 253.764 247.045 253.708 247.367 253.586C248.499 251.153 243.437 244.123 243.437 244.123C243.415 244.1 243.393 244.078 243.37 244.056C242.704 243.367 241.972 242.656 241.161 241.979C238.453 239.68 234.9 237.814 233.124 236.514L233.157 236.536Z" fill="#4ad380"/>
<path d="M101.55 268.692C101.961 268.781 102.36 268.825 102.771 268.825C103.526 268.825 104.37 268.814 105.302 268.781C106.235 268.758 107.067 268.714 107.811 268.658C108.499 268.625 109.065 268.336 109.532 267.803C109.831 267.448 109.987 267.081 109.998 266.692C110.02 266.304 109.931 265.948 109.754 265.637C109.565 265.326 109.299 265.06 108.932 264.849C108.577 264.638 108.166 264.527 107.722 264.527C107.445 264.527 107.067 264.527 106.59 264.538C106.112 264.538 105.735 264.56 105.457 264.582C105.18 264.604 104.902 264.604 104.614 264.593C104.325 264.593 104.025 264.582 103.715 264.582C103.692 264.049 103.681 263.505 103.659 262.949C103.637 262.394 103.615 261.827 103.581 261.228C104.025 261.194 104.447 261.15 104.858 261.117C105.269 261.083 105.657 261.039 106.046 261.006C106.301 260.983 106.568 260.972 106.834 260.95C107.1 260.928 107.367 260.906 107.622 260.872C107.922 260.817 108.155 260.683 108.344 260.472C108.533 260.261 108.632 260.017 108.644 259.739C108.677 259.151 108.377 258.729 107.733 258.495C107.511 258.406 107.311 258.362 107.123 258.384C106.645 258.418 106.168 258.462 105.713 258.495C105.247 258.529 104.78 258.573 104.303 258.606C104.159 258.629 104.014 258.629 103.87 258.629C103.726 258.629 103.559 258.651 103.359 258.684C103.326 257.24 103.282 255.818 103.237 254.397C103.193 252.986 103.148 251.542 103.115 250.087C103.37 250.109 103.615 250.12 103.848 250.143C104.081 250.165 104.303 250.176 104.525 250.198C105.047 250.232 105.557 250.276 106.057 250.32C106.568 250.365 107.078 250.387 107.6 250.387C108.211 250.354 108.777 250.198 109.321 249.921C109.632 249.754 109.887 249.521 110.087 249.232C110.275 248.932 110.398 248.632 110.431 248.299C110.464 247.977 110.42 247.677 110.275 247.41C110.142 247.144 109.898 246.966 109.565 246.866C109.121 246.733 108.555 246.655 107.866 246.622C107.178 246.588 106.457 246.566 105.724 246.566H103.537C102.815 246.566 102.205 246.544 101.705 246.488C101.372 246.455 101.017 246.488 100.651 246.566C100.284 246.655 99.9511 246.799 99.6514 246.999C99.3517 247.188 99.1074 247.444 98.9187 247.732C98.73 248.032 98.6412 248.366 98.6856 248.754C98.7744 249.976 98.8188 251.331 98.7966 252.831C98.7744 254.33 98.7633 255.863 98.7411 257.451C98.7189 259.028 98.7411 260.606 98.7855 262.172C98.8299 263.738 98.9631 265.204 99.1851 266.548C99.2407 266.937 99.385 267.27 99.6181 267.559C99.8512 267.848 100.129 268.081 100.462 268.27C100.795 268.458 101.161 268.592 101.572 268.681L101.55 268.692Z" fill="#4ad380"/>
<path d="M122.165 265.249C122.909 264.471 123.286 263.527 123.331 262.416C123.353 261.672 123.231 260.983 122.987 260.328C122.742 259.673 122.398 259.062 121.976 258.484C121.499 257.818 120.955 257.207 120.356 256.64C120.045 256.352 119.734 256.052 119.423 255.741C119.134 255.452 118.846 255.174 118.568 254.874C118.313 254.652 118.169 254.408 118.135 254.141C118.113 253.875 118.146 253.597 118.257 253.297C118.391 252.997 118.557 252.742 118.779 252.509C119.001 252.275 119.245 252.064 119.501 251.875C119.656 251.764 119.812 251.653 119.967 251.542C120.078 251.465 120.189 251.387 120.3 251.309C120.578 251.12 120.833 250.92 121.077 250.698C121.654 250.198 121.932 249.71 121.921 249.232C121.921 248.754 121.721 248.343 121.355 247.999C121.122 247.777 120.833 247.599 120.5 247.466C120.311 247.388 120.111 247.322 119.9 247.266C119.301 247.122 118.712 247.122 118.146 247.266C116.947 247.521 115.915 247.999 115.06 248.699C114.205 249.399 113.495 250.265 112.94 251.32C112.362 252.442 112.174 253.542 112.362 254.619C112.551 255.696 113.084 256.685 113.972 257.585C114.549 258.107 115.127 258.618 115.704 259.128C116.281 259.639 116.87 260.161 117.458 260.695C117.769 260.994 117.969 261.283 118.035 261.572C118.113 261.861 118.091 262.105 117.991 262.316C117.891 262.527 117.713 262.694 117.447 262.805C117.192 262.916 116.892 262.938 116.559 262.883C115.871 262.805 115.293 262.872 114.816 263.06C114.339 263.249 113.961 263.516 113.695 263.849C113.428 264.182 113.273 264.549 113.239 264.949C113.206 265.349 113.284 265.704 113.484 266.026C113.684 266.348 114.028 266.615 114.494 266.815C114.96 267.015 115.571 267.081 116.303 267.003C116.781 266.97 117.28 266.926 117.78 266.892C117.835 266.892 117.891 266.892 117.946 266.881C118.391 266.848 118.835 266.781 119.268 266.704C120.444 266.515 121.41 266.037 122.154 265.26L122.165 265.249Z" fill="#4ad380"/>
<path d="M126.039 250.398C126.317 250.543 126.606 250.654 126.916 250.731C127.216 250.809 127.538 250.854 127.871 250.887C128.204 250.909 128.548 250.931 128.892 250.942C129.248 250.942 129.603 250.965 129.969 250.987V251.431C129.892 253.486 129.825 255.519 129.758 257.54C129.692 259.562 129.625 261.605 129.547 263.682C129.525 264.093 129.547 264.482 129.625 264.86C129.703 265.237 129.836 265.615 130.036 265.982C130.502 266.837 131.213 267.259 132.201 267.259C132.722 267.281 133.155 267.181 133.5 266.959C133.855 266.737 134.155 266.437 134.41 266.048C134.798 265.348 134.976 264.593 134.932 263.771C134.909 263.471 134.909 263.183 134.909 262.894C134.909 262.605 134.909 262.327 134.887 262.05C134.81 260.817 134.743 259.584 134.676 258.362C134.61 257.14 134.543 255.918 134.465 254.674C134.432 254.097 134.388 253.53 134.343 252.975C134.299 252.409 134.254 251.82 134.221 251.187H135.465C135.831 251.187 136.197 251.153 136.541 251.087C136.897 251.02 137.23 250.92 137.563 250.765C138.007 250.565 138.351 250.254 138.584 249.854C138.751 249.487 138.762 249.099 138.628 248.688C138.495 248.277 138.207 247.943 137.785 247.688C137.374 247.433 136.952 247.255 136.497 247.166C136.042 247.077 135.576 247.044 135.098 247.088C134.565 247.122 134.021 247.155 133.488 247.188C132.956 247.21 132.412 247.244 131.879 247.288C131.412 247.31 130.946 247.31 130.447 247.31C129.947 247.31 129.47 247.321 128.992 247.355C128.515 247.377 128.027 247.433 127.549 247.521C127.072 247.599 126.606 247.732 126.162 247.899C125.862 248.043 125.64 248.232 125.484 248.443C125.329 248.654 125.24 248.888 125.218 249.121C125.196 249.365 125.251 249.598 125.384 249.832C125.518 250.065 125.717 250.265 125.995 250.431L126.039 250.398Z" fill="#4ad380"/>
<path d="M144.823 264.727C144.823 264.249 144.634 263.838 144.268 263.494C143.902 263.149 143.469 262.983 142.969 262.983C142.47 262.983 142.037 263.149 141.681 263.471C141.326 263.793 141.126 264.182 141.082 264.649C141.06 265.149 141.237 265.571 141.593 265.926C141.948 266.282 142.392 266.448 142.914 266.448C143.435 266.481 143.879 266.326 144.246 265.982C144.612 265.626 144.812 265.215 144.823 264.738V264.727Z" fill="#4ad380"/>
<path d="M158.145 265.504C158.389 265.871 158.711 266.17 159.111 266.404C159.521 266.637 159.988 266.759 160.52 266.781C161.409 266.804 162.297 266.759 163.185 266.67C164.073 266.581 164.961 266.481 165.849 266.393C166.271 266.337 166.593 266.193 166.793 265.959C166.993 265.726 167.093 265.46 167.093 265.137C167.093 264.815 166.981 264.538 166.759 264.293C166.537 264.049 166.227 263.882 165.816 263.805C165.572 263.749 165.327 263.727 165.072 263.727C164.817 263.727 164.55 263.727 164.273 263.705C164.106 263.705 163.94 263.705 163.773 263.716C163.607 263.716 163.418 263.738 163.218 263.76C163.529 263.227 163.829 262.694 164.106 262.183C164.384 261.661 164.65 261.139 164.906 260.606C165.216 259.906 165.549 259.195 165.894 258.484C166.238 257.773 166.549 257.051 166.826 256.307C167.181 255.363 167.292 254.408 167.159 253.453C167.026 252.497 166.715 251.631 166.204 250.865C165.694 250.098 165.017 249.487 164.151 249.021C163.296 248.554 162.33 248.355 161.253 248.41C160.809 248.443 160.398 248.543 160.01 248.71C159.621 248.877 159.266 249.088 158.933 249.343C158.678 249.543 158.478 249.765 158.333 250.009C158.2 250.254 158.167 250.532 158.234 250.843C158.322 251.209 158.5 251.487 158.755 251.664C159.011 251.842 159.299 251.942 159.61 251.987C159.721 252.009 159.821 252.009 159.91 252.009H160.742C161.187 252.042 161.553 252.186 161.842 252.42C162.13 252.664 162.33 252.964 162.452 253.319C162.574 253.675 162.608 254.064 162.552 254.486C162.497 254.897 162.363 255.285 162.141 255.641C161.719 256.285 161.286 256.929 160.842 257.551C160.398 258.184 159.954 258.817 159.51 259.462C159.144 259.962 158.811 260.484 158.511 261.017C158.211 261.55 157.989 262.116 157.823 262.705C157.678 263.238 157.634 263.749 157.701 264.227C157.767 264.704 157.923 265.137 158.156 265.504H158.145Z" fill="#4ad380"/>
<path d="M175.652 248.81C174.542 248.899 173.531 249.31 172.61 250.032C171.689 250.754 170.934 251.753 170.368 253.031C170.179 253.586 170.034 254.275 169.912 255.097C169.79 255.919 169.724 256.774 169.69 257.662C169.657 258.551 169.69 259.428 169.79 260.295C169.879 261.161 170.046 261.916 170.29 262.538C170.512 263.149 170.8 263.694 171.145 264.182C171.5 264.671 171.9 265.093 172.355 265.426C172.81 265.771 173.298 266.026 173.831 266.193C174.364 266.359 174.93 266.426 175.519 266.381C176.573 266.304 177.472 266.037 178.205 265.56C178.949 265.093 179.548 264.471 180.015 263.716C180.481 262.96 180.836 262.094 181.069 261.128C181.203 260.561 181.302 259.995 181.38 259.395C181.436 258.962 181.48 258.529 181.502 258.084C181.536 257.274 181.536 256.441 181.491 255.574C181.447 254.708 181.347 253.886 181.203 253.097C181.058 252.298 180.792 251.62 180.425 251.065C180.059 250.498 179.615 250.054 179.093 249.71C178.571 249.365 178.028 249.121 177.428 248.977C177.228 248.921 177.028 248.888 176.829 248.865C176.44 248.81 176.051 248.788 175.652 248.81ZM177.373 255.663C177.373 255.663 177.373 255.719 177.373 255.741C177.406 256.341 177.417 256.974 177.395 257.618C177.373 258.295 177.339 258.962 177.273 259.617C177.206 260.273 177.117 260.828 177.006 261.294C176.917 261.661 176.784 261.994 176.629 262.294C176.473 262.594 176.262 262.761 176.007 262.794C175.641 262.849 175.33 262.783 175.097 262.583C174.853 262.394 174.664 262.139 174.531 261.816C174.397 261.505 174.297 261.161 174.253 260.806C174.209 260.45 174.186 260.139 174.186 259.873C174.242 258.195 174.32 256.474 174.431 254.719C174.497 254.197 174.642 253.775 174.853 253.43C174.864 253.408 174.886 253.386 174.897 253.364C175.141 253.008 175.408 252.797 175.696 252.709C175.996 252.631 176.274 252.686 176.551 252.897C176.829 253.108 177.028 253.508 177.162 254.108C177.25 254.519 177.317 255.03 177.35 255.663H177.373Z" fill="#4ad380"/>
<path d="M183.645 264.227C183.711 264.704 183.867 265.137 184.1 265.504C184.344 265.871 184.666 266.17 185.066 266.404C185.477 266.637 185.943 266.759 186.476 266.781C187.364 266.804 188.252 266.759 189.14 266.67C189.184 266.67 189.229 266.67 189.273 266.659C190.117 266.57 190.961 266.481 191.804 266.393C192.226 266.337 192.548 266.193 192.748 265.959C192.948 265.726 193.048 265.46 193.048 265.137C193.048 264.815 192.937 264.538 192.715 264.293C192.493 264.049 192.182 263.882 191.771 263.805C191.527 263.749 191.283 263.727 191.027 263.727C190.772 263.727 190.505 263.727 190.228 263.705C190.061 263.705 189.895 263.705 189.728 263.716C189.562 263.716 189.373 263.738 189.173 263.76C189.484 263.227 189.784 262.694 190.061 262.183C190.339 261.661 190.605 261.139 190.861 260.606C191.172 259.906 191.505 259.195 191.849 258.484C192.193 257.773 192.504 257.051 192.781 256.307C193.136 255.363 193.248 254.408 193.114 253.453C192.981 252.497 192.67 251.631 192.16 250.865C191.649 250.098 190.972 249.487 190.106 249.021C189.251 248.554 188.285 248.355 187.208 248.41C186.764 248.443 186.354 248.543 185.965 248.71C185.576 248.877 185.221 249.088 184.888 249.343C184.633 249.543 184.433 249.765 184.289 250.009C184.155 250.254 184.122 250.532 184.189 250.843C184.278 251.209 184.455 251.487 184.711 251.664C184.966 251.842 185.254 251.942 185.565 251.987C185.676 252.009 185.776 252.009 185.865 252.009H186.698C187.142 252.042 187.508 252.186 187.797 252.42C188.085 252.664 188.285 252.964 188.407 253.319C188.529 253.675 188.563 254.064 188.507 254.486C188.452 254.897 188.318 255.285 188.096 255.641C187.675 256.285 187.242 256.929 186.798 257.551C186.354 258.184 185.909 258.817 185.465 259.462C185.099 259.962 184.766 260.484 184.466 261.017C184.311 261.294 184.178 261.583 184.056 261.872C183.945 262.15 183.845 262.427 183.767 262.705C183.623 263.238 183.578 263.749 183.645 264.227Z" fill="#4ad380"/>
<path d="M207.013 258.717C206.958 257.751 206.891 256.763 206.824 255.763C206.802 255.519 206.769 255.274 206.713 255.03C206.658 254.785 206.591 254.541 206.514 254.297C206.258 253.541 205.714 253.131 204.893 253.075C204.527 253.053 204.171 253.142 203.849 253.319C203.527 253.508 203.283 253.797 203.139 254.208C202.95 254.73 202.839 255.252 202.795 255.774C202.75 256.296 202.717 256.851 202.695 257.418C202.661 257.618 202.639 257.84 202.628 258.073C202.628 258.306 202.595 258.551 202.562 258.806H200.452C200.452 258.717 200.452 258.629 200.441 258.562C200.441 258.484 200.43 258.418 200.43 258.34C200.375 257.274 200.33 256.196 200.297 255.108C200.264 254.03 200.208 252.942 200.13 251.853C200.108 251.576 200.075 251.287 200.019 250.998C199.964 250.698 199.886 250.42 199.797 250.165C199.664 249.754 199.442 249.454 199.131 249.232C198.82 249.021 198.454 248.921 198.054 248.943C197.633 248.965 197.266 249.076 196.978 249.299C196.678 249.521 196.467 249.843 196.345 250.265C196.311 250.409 196.278 250.565 196.267 250.72C196.245 250.876 196.234 251.042 196.212 251.209L195.801 258.362C195.801 258.784 195.834 259.217 195.912 259.639C195.99 260.061 196.112 260.45 196.3 260.806C196.489 261.161 196.744 261.45 197.077 261.683C197.41 261.916 197.843 262.038 198.376 262.061C198.543 262.061 198.709 262.061 198.876 262.05C199.042 262.05 199.231 262.038 199.431 262.038C199.908 262.005 200.397 261.972 200.896 261.961C201.396 261.939 201.907 261.916 202.451 261.883C202.451 262.238 202.451 262.561 202.439 262.872C202.439 263.171 202.439 263.482 202.451 263.805C202.451 264.049 202.451 264.282 202.462 264.526C202.462 264.771 202.506 264.993 202.562 265.215C202.673 265.748 202.917 266.193 203.305 266.548C203.694 266.903 204.127 267.092 204.604 267.126C205.137 267.159 205.614 267.059 206.047 266.803C206.469 266.559 206.791 266.17 207.013 265.648C207.102 265.448 207.169 265.237 207.202 265.015C207.235 264.793 207.269 264.582 207.28 264.382C207.28 263.46 207.257 262.549 207.202 261.661C207.146 260.683 207.091 259.706 207.035 258.74L207.013 258.717Z" fill="#4ad380"/>
<path d="M237.16 174.202L225.625 179.211L230.266 186.342L241.501 181.344L237.16 174.202Z" fill="#4ad380"/>
</svg>
